# xmcd
#
# Track frame offsets: 
#        150
#        13109
#        28124
#        43328
#        56795
#        67597
#        80315
#        92302
#        103823
#        119529
#        136761
#        150655
#        168021
#        182624
#
# Disc length: 2599 seconds
#
# Revision: 0
# Processed by: cddbd v1.5.2PL0 Copyright (c) Steve Scherf et al.
# Submitted via: ExactAudioCopyFreeDBPlugin 1.0
#
DISCID=a90a250e
DTITLE=Waylon Jennings, Willie Nelson - Playlist: The Very Best of Way
DTITLE=lon Jennings and Willie Nelson
DYEAR=2015
DGENRE=Country
TTITLE0=Put Me On a Train Back to Texas
TTITLE1=Luckenbach, Texas (Back to the Basics of Love)
TTITLE2=(Sittin' On) The Dock of the Bay
TTITLE3=Good Hearted Woman
TTITLE4=I Can Get Off On You
TTITLE5=Just to Satisfy You
TTITLE6=Why Baby Why
TTITLE7=Mammas, Don't Let Your Babies Grow Up to Be Cowboys
TTITLE8=If I Can Find a Clean Shirt
TTITLE9=Take It to the Limit
TTITLE10=Don't Cuss the Fiddle
TTITLE11=Mr.Shuck and Jive
TTITLE12=Write Your Own Songs
TTITLE13=Heroes
EXTD=
EXTT0=
EXTT1=
EXTT2=
EXTT3=
EXTT4=
EXTT5=
EXTT6=
EXTT7=
EXTT8=
EXTT9=
EXTT10=
EXTT11=
EXTT12=
EXTT13=
PLAYORDER=
